<svg width="118" height="69" viewBox="0 0 118 69" fill="none" xmlns="http://www.w3.org/2000/svg">
<path d="M20.168 0.703997C30.152 0.703997 37.8 2.496 43.112 6.08C48.424 9.6 51.08 15.104 51.08 22.592C51.08 27.264 49.992 31.072 47.816 34.016C45.704 36.896 42.632 39.168 38.6 40.832C39.944 42.496 41.352 44.416 42.824 46.592C44.296 48.704 45.736 50.944 47.144 53.312C48.616 55.616 50.024 58.048 51.368 60.608C52.712 63.104 53.96 65.568 55.112 68H38.312C37.096 65.824 35.848 63.616 34.568 61.376C33.352 59.136 32.072 56.96 30.728 54.848C29.448 52.736 28.168 50.752 26.888 48.896C25.608 46.976 24.328 45.248 23.048 43.712H15.656V68H0.680001V2.432C3.944 1.792 7.304 1.344 10.76 1.088C14.28 0.831997 17.416 0.703997 20.168 0.703997ZM21.032 13.472C19.944 13.472 18.952 13.504 18.056 13.568C17.224 13.632 16.424 13.696 15.656 13.76V31.808H19.88C25.512 31.808 29.544 31.104 31.976 29.696C34.408 28.288 35.624 25.888 35.624 22.496C35.624 19.232 34.376 16.928 31.88 15.584C29.448 14.176 25.832 13.472 21.032 13.472ZM86.8873 68.864C83.2393 68.864 79.5913 68.736 75.9433 68.48C72.3593 68.288 68.6153 67.776 64.7113 66.944V2.432C67.7833 1.856 71.1433 1.44 74.7913 1.184C78.4393 0.863997 81.8313 0.703997 84.9673 0.703997C89.1913 0.703997 93.0633 1.024 96.5833 1.664C100.167 2.24 103.239 3.264 105.799 4.736C108.359 6.208 110.343 8.16 111.751 10.592C113.223 12.96 113.959 15.904 113.959 19.424C113.959 24.736 111.399 28.928 106.279 32C110.503 33.6 113.383 35.776 114.919 38.528C116.455 41.28 117.223 44.384 117.223 47.84C117.223 54.816 114.663 60.064 109.543 63.584C104.487 67.104 96.9353 68.864 86.8873 68.864ZM79.3033 39.008V56.192C80.3913 56.32 81.5753 56.416 82.8553 56.48C84.1353 56.544 85.5433 56.576 87.0793 56.576C91.5593 56.576 95.1753 55.936 97.9273 54.656C100.679 53.376 102.055 51.008 102.055 47.552C102.055 44.48 100.903 42.304 98.5993 41.024C96.2953 39.68 92.9993 39.008 88.7113 39.008H79.3033ZM79.3033 27.584H86.5993C91.2073 27.584 94.5033 27.008 96.4873 25.856C98.4713 24.64 99.4633 22.72 99.4633 20.096C99.4633 17.408 98.4393 15.52 96.3913 14.432C94.3433 13.344 91.3353 12.8 87.3673 12.8C86.0873 12.8 84.7113 12.832 83.2393 12.896C81.7673 12.896 80.4553 12.96 79.3033 13.088V27.584Z" fill="#25476A"/>
</svg>
